<svg xmlns="http://www.w3.org/2000/svg" width="64" height="64" viewBox="0 0 64 64">
  <rect width="64" height="64" fill="none"/>
  <g stroke="none" stroke-width="0" fill="none" fill-rule="evenodd">
    <path d="M30 4 L34 4 L34 2 L30 2 Z" fill="#c81d4a"/>
    <rect x="22" y="6" width="20" height="12" rx="2" fill="#d4d7dd"/>
    <rect x="26" y="10" width="12" height="6" fill="#30344d"/>
    <rect x="20" y="18" width="24" height="20" rx="4" fill="#b9bcc6"/>
    <rect x="18" y="20" width="4" height="16" fill="#b9bcc6"/>
    <rect x="42" y="20" width="4" height="16" fill="#b9bcc6"/>
    <rect x="16" y="36" width="6" height="6" fill="#f0c59c"/>
    <rect x="42" y="36" width="6" height="6" fill="#f0c59c"/>
    <rect x="24" y="32" width="16" height="6" fill="#774620"/>
    <rect x="24" y="38" width="16" height="18" fill="#4c547d"/>
    <rect x="22" y="52" width="10" height="8" fill="#2f1c0f"/>
    <rect x="32" y="52" width="10" height="8" fill="#2f1c0f"/>
    <rect x="40" y="24" width="12" height="6" fill="#d4d7dd" transform="rotate(10 46 27)"/>
    <rect x="48" y="26" width="10" height="3" fill="#d4d7dd" transform="rotate(10 53 27.5)"/>
    <rect x="49" y="29" width="8" height="3" fill="#8c5a24" transform="rotate(10 53 30.5)"/>
  </g>
</svg>
