<svg xmlns="http://www.w3.org/2000/svg" width="64" height="64" viewBox="0 0 64 64">
  <rect width="64" height="64" fill="none"/>
  <g fill="none" fill-rule="evenodd">
    <rect x="18" y="6" width="28" height="18" rx="6" fill="#6cc786"/>
    <rect x="22" y="12" width="8" height="6" fill="#f3f6f7"/>
    <rect x="34" y="12" width="8" height="6" fill="#f3f6f7"/>
    <rect x="26" y="14" width="2" height="2" fill="#b11c2b"/>
    <rect x="38" y="14" width="2" height="2" fill="#b11c2b"/>
    <rect x="24" y="20" width="16" height="4" fill="#3b0d0d"/>
    <rect x="18" y="24" width="28" height="22" rx="4" fill="#4e7a52"/>
    <rect x="14" y="26" width="6" height="18" fill="#6cc786"/>
    <rect x="44" y="26" width="6" height="18" fill="#6cc786"/>
    <rect x="12" y="40" width="8" height="6" fill="#6cc786"/>
    <rect x="44" y="40" width="8" height="6" fill="#6cc786"/>
    <rect x="22" y="44" width="8" height="16" fill="#6d5ca8"/>
    <rect x="34" y="44" width="8" height="16" fill="#2f4c7a"/>
    <rect x="20" y="58" width="10" height="4" fill="#3b2312"/>
    <rect x="34" y="58" width="10" height="4" fill="#3b2312"/>
  </g>
</svg>
